<svg width="43" height="24" viewBox="0 0 43 24" fill="none" xmlns="http://www.w3.org/2000/svg">
<path fill-rule="evenodd" clip-rule="evenodd" d="M21.4945 13.2529C22.3295 13.2543 23.1462 13.0078 23.8411 12.5448C24.536 12.0817 25.0778 11.4229 25.398 10.6517C25.7182 9.88041 25.8023 9.03154 25.6398 8.21249C25.4772 7.39343 25.0753 6.64102 24.4848 6.05056C23.8943 5.4601 23.1419 5.05814 22.3229 4.89558C21.5038 4.73301 20.6549 4.81714 19.8837 5.13734C19.1125 5.45753 18.4537 5.99938 17.9906 6.69427C17.5276 7.38915 17.2811 8.20581 17.2825 9.04084C17.2841 10.1574 17.7284 11.2279 18.5179 12.0175C19.3075 12.807 20.3779 13.2513 21.4945 13.2529ZM21.4945 5.98785C22.0987 5.98725 22.6895 6.16589 23.1921 6.50115C23.6948 6.83641 24.0867 7.31323 24.3183 7.87128C24.5498 8.42934 24.6107 9.04353 24.4931 9.63618C24.3756 10.2288 24.0848 10.7733 23.6577 11.2007C23.2306 11.6281 22.6864 11.9191 22.0938 12.0371C21.5012 12.1551 20.887 12.0946 20.3288 11.8634C19.7706 11.6322 19.2935 11.2406 18.9579 10.7382C18.6223 10.2357 18.4433 9.64503 18.4435 9.04084C18.4567 8.23595 18.7824 7.46775 19.3518 6.89872C19.9212 6.32969 20.6896 6.00446 21.4945 5.99184V5.98785Z" fill="#B00000"/>
<path fill-rule="evenodd" clip-rule="evenodd" d="M21.0685 23.4528C21.1761 23.5586 21.318 23.6224 21.4685 23.6328C21.6438 23.6245 21.8102 23.5535 21.9375 23.4328C22.7695 22.4918 30.0835 14.0818 30.0835 9.04384C30.0958 7.90884 29.8828 6.78269 29.4569 5.73055C29.0311 4.6784 28.4008 3.72116 27.6025 2.91423C26.8042 2.1073 25.8539 1.46669 24.8064 1.0295C23.7589 0.592297 22.6351 0.367188 21.5 0.367188C20.3649 0.367188 19.2412 0.592297 18.1937 1.0295C17.1462 1.46669 16.1958 2.1073 15.3976 2.91423C14.5993 3.72116 13.969 4.6784 13.5431 5.73055C13.1172 6.78269 12.9042 7.90884 12.9165 9.04384C12.9135 14.4858 20.2345 22.5508 21.0685 23.4528ZM21.4915 1.61383C23.4533 1.63947 25.3275 2.43019 26.7148 3.81751C28.1022 5.20482 28.8929 7.07904 28.9185 9.04083C28.9185 12.8888 23.6615 19.5408 22.0505 21.4838L21.4725 22.1838L20.8835 21.5008C19.2835 19.6588 14.0685 13.3128 14.0685 9.04184C14.0936 7.08031 14.8837 5.20612 16.2705 3.81862C17.6572 2.43112 19.531 1.64 21.4925 1.61383H21.4915Z" fill="#B00000"/>
</svg>
