<svg width="43" height="24" viewBox="0 0 43 24" fill="none" xmlns="http://www.w3.org/2000/svg">
<path fill-rule="evenodd" clip-rule="evenodd" d="M17.3294 1.99565H17.6622C17.8361 2.0556 17.982 2.17126 18.0739 2.32224C18.1658 2.47323 18.198 2.64982 18.1646 2.82087C18.1513 2.95928 18.1646 3.1008 18.1646 3.23712H24.8409C24.829 2.99438 24.8309 2.75123 24.8464 2.50868C24.8697 2.38986 24.927 2.27923 25.0122 2.18865C25.0974 2.09808 25.2073 2.03099 25.33 1.9946H25.6628C25.8368 2.05455 25.9826 2.17023 26.0745 2.32121C26.1665 2.47219 26.1986 2.64878 26.1653 2.81982C26.152 2.95927 26.1653 3.09977 26.1653 3.24546C27.0526 3.24546 27.9067 3.24546 28.7597 3.24546C29.1218 3.23583 29.4822 3.29566 29.8189 3.42127C30.1555 3.54688 30.4613 3.73563 30.7174 3.97596C30.9736 4.2163 31.1748 4.50316 31.3087 4.81899C31.4426 5.13481 31.5063 5.47295 31.4961 5.8127C31.4961 10.352 31.4961 14.8909 31.4961 19.4294C31.5075 19.7709 31.4442 20.1109 31.31 20.4284C31.1757 20.746 30.9735 21.0343 30.7158 21.2756C30.4581 21.5169 30.1503 21.7061 29.8116 21.8314C29.4728 21.9566 29.1103 22.0154 28.7464 22.004C23.9154 22.004 19.0845 22.004 14.2536 22.004C13.8897 22.0154 13.5271 21.9566 13.1884 21.8314C12.8497 21.7061 12.5419 21.5169 12.2842 21.2756C12.0264 21.0343 11.8242 20.746 11.69 20.4284C11.5558 20.1109 11.4924 19.7709 11.5039 19.4294C11.5039 14.8915 11.5039 10.3527 11.5039 5.8127C11.4936 5.47295 11.5574 5.13481 11.6913 4.81899C11.8252 4.50316 12.0263 4.2163 12.2825 3.97596C12.5387 3.73563 12.8445 3.54688 13.1811 3.42127C13.5177 3.29566 13.8781 3.23583 14.2403 3.24546C15.0245 3.24546 15.8087 3.24546 16.5929 3.24546H16.8347C16.7517 3.01551 16.7555 2.76577 16.8456 2.53818C16.9357 2.31059 17.1065 2.11902 17.3294 1.99565ZM30.1595 8.2634H12.8382C12.8382 8.3019 12.8305 8.32792 12.8305 8.35394C12.8305 12.0593 12.8323 15.7653 12.836 19.4721C12.838 19.6734 12.8869 19.872 12.9791 20.0538C13.096 20.2813 13.2836 20.4703 13.5173 20.5957C13.751 20.7211 14.0197 20.7771 14.288 20.7562C19.0716 20.7562 23.8548 20.7562 28.6377 20.7562C28.8428 20.7804 29.0512 20.7604 29.2469 20.6977C29.4426 20.635 29.6205 20.5313 29.767 20.3945C29.9136 20.2577 30.0251 20.0913 30.0929 19.908C30.1607 19.7248 30.1831 19.5294 30.1584 19.3368C30.1584 15.723 30.1584 12.1082 30.1584 8.49234V8.26548L30.1595 8.2634ZM12.8405 6.98445H30.1595C30.1595 6.60046 30.1595 6.23 30.1595 5.85953C30.1757 5.67653 30.1491 5.49241 30.0817 5.32003C30.0142 5.14765 29.9075 4.99116 29.769 4.86146C29.6304 4.73177 29.4633 4.63199 29.2794 4.5691C29.0956 4.50621 28.8992 4.48171 28.7042 4.49733C27.927 4.49733 27.1506 4.49733 26.3749 4.49733C26.3084 4.49733 26.2418 4.49733 26.1631 4.5067C26.1631 4.70442 26.1631 4.88549 26.1631 5.0676C26.1631 5.2332 26.0929 5.39202 25.9681 5.50912C25.8433 5.62621 25.674 5.69199 25.4975 5.69199C25.321 5.69199 25.1517 5.62621 25.0269 5.50912C24.9021 5.39202 24.832 5.2332 24.832 5.0676C24.832 4.88133 24.832 4.69609 24.832 4.51294H18.1624C18.1624 4.70234 18.1624 4.87822 18.1624 5.05304C18.1618 5.13504 18.1439 5.2161 18.1098 5.29162C18.0758 5.36714 18.0262 5.43563 17.964 5.49317C17.9017 5.55072 17.828 5.59619 17.747 5.627C17.666 5.65781 17.5793 5.67335 17.4919 5.67273C17.4045 5.67212 17.3181 5.65536 17.2376 5.62341C17.1571 5.59147 17.0841 5.54497 17.0228 5.48655C16.9614 5.42814 16.913 5.35896 16.8801 5.28297C16.8473 5.20698 16.8307 5.12567 16.8314 5.04367C16.8314 4.86469 16.8314 4.68569 16.8314 4.50254C15.8985 4.50254 14.9968 4.4838 14.0961 4.50878C13.7756 4.5138 13.469 4.63233 13.2377 4.84058C13.0065 5.04884 12.8678 5.33142 12.8493 5.63164C12.8116 6.07599 12.8405 6.52553 12.8405 6.98445Z" fill="#B00000"/>
<path fill-rule="evenodd" clip-rule="evenodd" d="M14.1649 12.6226C14.1649 12.4145 14.1582 12.2064 14.1649 11.9982C14.1649 11.6681 14.3042 11.3514 14.5524 11.1174C14.8005 10.8834 15.1374 10.7511 15.4893 10.7495C15.9396 10.738 16.391 10.737 16.8414 10.7495C17.1895 10.75 17.5233 10.8798 17.7698 11.1104C18.0162 11.3411 18.1554 11.6539 18.1569 11.9805C18.1713 12.4093 18.1724 12.8401 18.1569 13.2688C18.154 13.592 18.0161 13.9013 17.7728 14.1301C17.5295 14.3589 17.2003 14.4891 16.8558 14.4926C16.3988 14.5082 15.9396 14.5072 15.4826 14.4926C15.1348 14.4907 14.8018 14.3605 14.5554 14.1302C14.3091 13.8999 14.1692 13.5879 14.166 13.2616C14.1527 13.0524 14.1649 12.837 14.1649 12.6226ZM16.8148 13.247V12.0201H15.507V13.247H16.8148Z" fill="#B00000"/>
<path fill-rule="evenodd" clip-rule="evenodd" d="M21.4945 14.501C21.2793 14.501 21.0641 14.501 20.85 14.501C20.6724 14.5036 20.4961 14.4729 20.3313 14.4106C20.1666 14.3483 20.0168 14.2557 19.8908 14.1383C19.7648 14.0208 19.6651 13.8809 19.5976 13.7268C19.5302 13.5726 19.4962 13.4074 19.4979 13.2408C19.4883 12.8307 19.4883 12.4207 19.4979 12.0107C19.4964 11.8441 19.5304 11.6788 19.5981 11.5248C19.6657 11.3707 19.7655 11.2308 19.8916 11.1135C20.0177 10.9961 20.1675 10.9037 20.3323 10.8415C20.4971 10.7793 20.6735 10.7488 20.8511 10.7515C21.2815 10.7442 21.7107 10.7432 22.1411 10.7515C22.3204 10.7488 22.4984 10.7801 22.6645 10.8436C22.8306 10.907 22.9813 11.0013 23.1076 11.1207C23.2339 11.2402 23.3331 11.3823 23.3994 11.5387C23.4657 11.695 23.4976 11.8623 23.4932 12.0305C23.4999 12.428 23.4999 12.8248 23.4932 13.221C23.4978 13.3911 23.4654 13.5602 23.3978 13.7181C23.3303 13.876 23.2291 14.0192 23.1004 14.1391C22.9717 14.259 22.8182 14.3529 22.6495 14.4151C22.4807 14.4773 22.3002 14.5065 22.1189 14.501C21.9104 14.5041 21.703 14.502 21.4945 14.501ZM20.8422 12.0097V13.2355H22.15V12.0097H20.8422Z" fill="#B00000"/>
<path fill-rule="evenodd" clip-rule="evenodd" d="M26.8264 14.501C26.6112 14.501 26.396 14.501 26.1808 14.501C26.0032 14.5036 25.8269 14.4729 25.6621 14.4106C25.4974 14.3483 25.3476 14.2557 25.2216 14.1383C25.0956 14.0208 24.9959 13.8809 24.9284 13.7268C24.861 13.5726 24.827 13.4074 24.8287 13.2408C24.8191 12.8308 24.8191 12.4207 24.8287 12.0107C24.8272 11.8442 24.8612 11.679 24.9288 11.525C24.9963 11.371 25.096 11.2312 25.222 11.1139C25.348 10.9965 25.4977 10.904 25.6624 10.8418C25.827 10.7796 26.0033 10.7489 26.1808 10.7515C26.6104 10.7439 27.0404 10.7439 27.4708 10.7515C27.6502 10.7487 27.8284 10.7799 27.9946 10.8433C28.1608 10.9066 28.3116 11.0009 28.438 11.1204C28.5644 11.2398 28.6638 11.382 28.7301 11.5384C28.7964 11.6948 28.8284 11.8622 28.824 12.0305C28.8307 12.427 28.8307 12.8245 28.824 13.221C28.8287 13.3911 28.7962 13.5602 28.7286 13.7181C28.6611 13.876 28.5599 14.0193 28.4312 14.1391C28.3025 14.259 28.149 14.3529 27.9803 14.4151C27.8115 14.4773 27.631 14.5066 27.4497 14.501C27.2412 14.5041 27.0349 14.502 26.8264 14.501ZM27.4786 13.2428V12.0159H26.1708V13.2428H27.4786Z" fill="#B00000"/>
<path fill-rule="evenodd" clip-rule="evenodd" d="M16.1492 19.5033C15.934 19.5033 15.7188 19.5033 15.5048 19.5033C15.3295 19.504 15.1558 19.4722 14.9937 19.4097C14.8316 19.3473 14.6842 19.2554 14.56 19.1394C14.4358 19.0234 14.3372 18.8855 14.27 18.7336C14.2028 18.5818 14.1682 18.419 14.1682 18.2545C14.1571 17.8383 14.156 17.422 14.1682 17.0058C14.1671 16.842 14.2007 16.6797 14.2668 16.5282C14.3329 16.3767 14.4303 16.2389 14.5534 16.1228C14.6765 16.0068 14.8228 15.9147 14.984 15.8519C15.1452 15.7891 15.318 15.7569 15.4926 15.757C15.9429 15.7456 16.3943 15.7445 16.8447 15.757C17.1927 15.7581 17.5262 15.8882 17.7724 16.119C18.0186 16.3498 18.1576 16.6626 18.1591 16.9891C18.1735 17.4179 18.1746 17.8487 18.1591 18.2774C18.1548 18.6005 18.0163 18.9092 17.7731 19.138C17.5299 19.3667 17.2012 19.4974 16.8569 19.5023C16.6217 19.5116 16.3855 19.5033 16.1492 19.5033ZM15.5125 17.012V18.2379H16.8147V17.012H15.5125Z" fill="#B00000"/>
<path fill-rule="evenodd" clip-rule="evenodd" d="M21.4977 19.5033C21.2759 19.5033 21.0541 19.5033 20.8322 19.5033C20.6568 19.5033 20.4831 19.4708 20.3211 19.4076C20.1591 19.3444 20.012 19.2517 19.8883 19.135C19.7646 19.0183 19.6667 18.8797 19.6003 18.7274C19.5338 18.575 19.5002 18.4119 19.5012 18.2473C19.4912 17.8373 19.4912 17.4272 19.5012 17.0172C19.4993 16.8507 19.5328 16.6855 19.6 16.5313C19.6671 16.3771 19.7665 16.2371 19.8921 16.1195C20.0178 16.0019 20.1673 15.909 20.3318 15.8464C20.4963 15.7838 20.6725 15.7527 20.85 15.7549C21.2804 15.7466 21.7096 15.7477 22.14 15.7549C22.3187 15.7522 22.4962 15.7834 22.6618 15.8464C22.8274 15.9095 22.9778 16.0032 23.104 16.122C23.2302 16.2408 23.3296 16.3822 23.3963 16.5378C23.4629 16.6934 23.4955 16.86 23.4921 17.0276C23.4998 17.4314 23.501 17.8341 23.4921 18.2379C23.4942 18.4045 23.4607 18.5698 23.3936 18.7241C23.3265 18.8784 23.2272 19.0186 23.1015 19.1363C22.9758 19.254 22.8263 19.347 22.6617 19.4096C22.4972 19.4723 22.3209 19.5035 22.1433 19.5012C21.9281 19.5075 21.7129 19.5033 21.4977 19.5033ZM22.1466 18.2441V17.0172H20.8378V18.2441H22.1466Z" fill="#B00000"/>
<path fill-rule="evenodd" clip-rule="evenodd" d="M28.8252 17.625C28.8252 17.8331 28.8307 18.0412 28.8252 18.2494C28.8252 18.414 28.7905 18.5769 28.7231 18.7289C28.6557 18.8809 28.557 19.0189 28.4326 19.1349C28.3081 19.251 28.1605 19.3428 27.9981 19.4052C27.8357 19.4675 27.6618 19.4991 27.4863 19.4981C27.0493 19.5085 26.6123 19.5075 26.1753 19.4981C25.9978 19.4999 25.8217 19.4684 25.6573 19.4054C25.493 19.3424 25.3437 19.2493 25.2184 19.1313C25.093 19.0134 24.9941 18.8732 24.9273 18.7189C24.8606 18.5645 24.8274 18.3992 24.8298 18.2327C24.8209 17.8289 24.8209 17.4255 24.8298 17.0224C24.8263 16.8541 24.8592 16.6869 24.9263 16.5308C24.9935 16.3747 25.0935 16.233 25.2206 16.1141C25.3476 15.9952 25.4989 15.9017 25.6655 15.8391C25.832 15.7764 26.0103 15.7461 26.1897 15.7497C26.6201 15.7424 27.0504 15.7414 27.4797 15.7497C27.6573 15.7479 27.8335 15.7795 27.9979 15.8425C28.1623 15.9056 28.3116 15.9988 28.437 16.1169C28.5624 16.2349 28.6613 16.3753 28.728 16.5297C28.7946 16.6842 28.8277 16.8496 28.8252 17.0162C28.8307 17.2212 28.8263 17.4231 28.8252 17.625ZM26.1686 18.24H27.4753V17.0131H26.1697L26.1686 18.24Z" fill="#B00000"/>
</svg>
