<svg width="43" height="24" viewBox="0 0 43 24" fill="none" xmlns="http://www.w3.org/2000/svg">
<path fill-rule="evenodd" clip-rule="evenodd" d="M24.6227 12.5277C24.4666 12.5275 24.3121 12.5584 24.1681 12.6185C24.024 12.6786 23.8934 12.7667 23.7837 12.8777C23.6728 12.9895 23.5852 13.1222 23.526 13.2681C23.4668 13.414 23.4371 13.5702 23.4387 13.7277C23.4397 14.0423 23.5655 14.3435 23.7884 14.5655C24.0113 14.7875 24.3131 14.912 24.6277 14.9117H24.6387C24.9521 14.9067 25.2511 14.7794 25.4718 14.5568C25.6925 14.3342 25.8174 14.0341 25.8197 13.7207C25.8178 13.4042 25.691 13.1012 25.4668 12.8777C25.2426 12.6543 24.9392 12.5285 24.6227 12.5277Z" fill="#B00000"/>
<path fill-rule="evenodd" clip-rule="evenodd" d="M28.7097 10.5487H27.7877V9.70369C27.7877 9.06569 27.7877 8.42768 27.7877 7.79068C27.7961 7.5934 27.7636 7.39652 27.692 7.21248C27.6205 7.02843 27.5115 6.86123 27.3721 6.72147C27.2326 6.5817 27.0656 6.47241 26.8817 6.4005C26.6978 6.32858 26.501 6.29561 26.3037 6.30368C26.1767 6.30368 26.0507 6.30368 25.9227 6.30368H25.4057C25.3517 6.30368 25.3057 6.30368 25.2467 6.30368L25.2387 4.48468C25.255 4.27151 25.2249 4.05734 25.1504 3.85692C25.076 3.6565 24.959 3.47461 24.8075 3.32376C24.656 3.17292 24.4736 3.05671 24.2728 2.98315C24.0721 2.9096 23.8578 2.88044 23.6447 2.89769H16.5707C14.7577 2.89769 12.9567 2.89769 11.1457 2.89769C10.7147 2.88814 10.2883 2.98717 9.90567 3.18568L9.97265 2.85669L9.27267 3.70868C9.27267 3.70868 9.23266 3.75768 9.16366 3.85568L9.11865 3.92668C8.84241 4.35806 8.69753 4.86045 8.70165 5.37268V19.0797C8.70289 19.3733 8.77218 19.6626 8.90405 19.925C9.03591 20.1873 9.22677 20.4155 9.46166 20.5917C9.93928 20.952 10.5224 21.1446 11.1207 21.1397H26.2277C26.4358 21.1544 26.6447 21.1244 26.8403 21.0517C27.0358 20.979 27.2136 20.8652 27.3616 20.7181C27.5095 20.571 27.6243 20.3939 27.6981 20.1988C27.772 20.0036 27.8032 19.7949 27.7897 19.5867V16.8957H28.7377C28.8406 16.9133 28.9462 16.9061 29.0458 16.8747C29.1453 16.8432 29.2359 16.7884 29.31 16.7148C29.3841 16.6412 29.4395 16.551 29.4716 16.4516C29.5037 16.3523 29.5116 16.2467 29.4947 16.1437V11.3437C29.519 11.2352 29.5157 11.1223 29.4851 11.0154C29.4544 10.9085 29.3974 10.811 29.3193 10.7318C29.2411 10.6527 29.1444 10.5945 29.0379 10.5625C28.9313 10.5305 28.8185 10.5257 28.7097 10.5487ZM9.99466 4.84869C10.0677 4.64543 10.2001 4.46874 10.3746 4.34146C10.5491 4.21418 10.7578 4.14215 10.9737 4.13469C11.0197 4.13469 11.0606 4.13469 11.1106 4.13469H17.5907H23.6197C23.7239 4.13122 23.8272 4.15463 23.9197 4.20268C23.9624 4.24688 23.9885 4.30446 23.9937 4.36569C24.0047 4.89469 24.0037 5.43169 24.0017 5.94969L23.9947 6.29968H18.8347C16.6346 6.29968 14.438 6.29968 12.2447 6.29968H11.1446C10.8363 6.31894 10.5324 6.21907 10.2956 6.02069C10.1347 5.87803 10.02 5.69052 9.9664 5.48222C9.91276 5.27393 9.9226 5.05435 9.99466 4.85168V4.84869ZM26.5567 19.5857C26.5687 19.63 26.5688 19.6767 26.5568 19.721C26.5449 19.7653 26.5214 19.8057 26.4888 19.8379C26.4561 19.8702 26.4155 19.8932 26.371 19.9046C26.3265 19.9159 26.2798 19.9153 26.2357 19.9027H11.0707C10.915 19.9128 10.7591 19.889 10.6135 19.8329C10.468 19.7769 10.3364 19.6899 10.2278 19.578C10.1192 19.466 10.0362 19.3318 9.98458 19.1847C9.93293 19.0376 9.91387 18.8809 9.92868 18.7257V7.24968C10.2935 7.42488 10.6911 7.52131 11.0957 7.53268H11.7786C16.572 7.53268 21.3647 7.53268 26.1567 7.53268C26.5157 7.53268 26.5567 7.57369 26.5567 7.93269V10.5507H26.4967C26.2967 10.5507 26.0967 10.5507 25.8967 10.5507H25.7827C25.2967 10.5507 24.7917 10.5507 24.2917 10.5837C23.5442 10.6546 22.8471 10.9914 22.3268 11.5327C21.8066 12.074 21.4979 12.784 21.4567 13.5337C21.4141 14.289 21.6426 15.0347 22.1009 15.6365C22.5592 16.2384 23.2173 16.6569 23.9567 16.8167C24.2092 16.8648 24.4656 16.8896 24.7227 16.8907C25.1957 16.8977 25.6727 16.8987 26.1587 16.8907H26.5587V19.5907L26.5567 19.5857ZM28.2487 15.6467H26.0717C25.5957 15.6467 25.1227 15.6467 24.6487 15.6467C24.285 15.651 23.9274 15.5526 23.617 15.3629C23.3066 15.1732 23.056 14.8999 22.8939 14.5743C22.7318 14.2487 22.6647 13.884 22.7004 13.522C22.7361 13.16 22.8731 12.8154 23.0957 12.5277C23.2635 12.3071 23.4786 12.1269 23.7252 12.0004C23.9718 11.8739 24.2436 11.8043 24.5207 11.7967C25.0707 11.7857 25.6207 11.7827 26.1757 11.7827L28.2487 11.7897V15.6467Z" fill="#B00000"/>
</svg>
