<svg width="73" height="52" viewBox="0 0 73 52" fill="none" xmlns="http://www.w3.org/2000/svg">
<g clip-path="url(#clip0_1_42)">
<path fill-rule="evenodd" clip-rule="evenodd" d="M36.112 31.425L25.484 25.289C25.586 25.0184 25.6323 24.7299 25.62 24.441C25.6148 23.9659 25.4672 23.5032 25.1963 23.1129C24.9253 22.7226 24.5435 22.4226 24.1002 22.2517C23.6568 22.0807 23.1724 22.0467 22.7096 22.1541C22.2467 22.2615 21.8268 22.5053 21.504 22.854C21.2901 23.0707 21.1227 23.3289 21.0121 23.6126C20.9015 23.8963 20.8501 24.1997 20.861 24.504C20.878 25.127 21.1351 25.7193 21.5787 26.1571C22.0222 26.5948 22.6178 26.8442 23.241 26.853C23.6252 26.8503 24.0029 26.7535 24.341 26.571L35.23 32.858C35.499 33.0102 35.8029 33.0902 36.112 33.0902C36.4211 33.0902 36.725 33.0102 36.994 32.858L46.517 27.358C46.0966 26.9741 45.7622 26.5055 45.536 25.983L36.112 31.425ZM23.961 25.119C23.8685 25.2187 23.7572 25.299 23.6334 25.3553C23.5096 25.4116 23.3759 25.4428 23.24 25.447C22.9781 25.4405 22.7292 25.3314 22.5469 25.1433C22.3646 24.9551 22.2633 24.703 22.265 24.441C22.2643 24.3265 22.2865 24.213 22.3303 24.1073C22.3741 24.0015 22.4386 23.9055 22.52 23.825C22.6125 23.7254 22.7239 23.6451 22.8477 23.5888C22.9714 23.5325 23.1051 23.5013 23.241 23.497C23.5029 23.5035 23.7518 23.6126 23.9341 23.8007C24.1164 23.9889 24.2176 24.241 24.216 24.503C24.2168 24.6175 24.1946 24.731 24.1508 24.8368C24.107 24.9426 24.0425 25.0386 23.961 25.119Z" fill="#B00000"/>
<path fill-rule="evenodd" clip-rule="evenodd" d="M23.915 20.627V10.3L34.544 4.164C34.9721 4.55538 35.5309 4.7729 36.111 4.774C36.4369 4.77011 36.7586 4.70063 37.057 4.56972C37.3555 4.4388 37.6245 4.24912 37.848 4.012C38.0619 3.79529 38.2293 3.53714 38.3399 3.2534C38.4505 2.96966 38.5019 2.66632 38.491 2.362C38.4859 1.88675 38.3382 1.42399 38.0671 1.0336C37.7961 0.643212 37.414 0.343175 36.9705 0.172323C36.527 0.00147194 36.0425 -0.0323266 35.5795 0.0753004C35.1166 0.182927 34.6966 0.427026 34.374 0.776001C34.1601 0.992565 33.9928 1.25054 33.8822 1.53411C33.7717 1.81767 33.7202 2.12083 33.731 2.425C33.731 2.51 33.743 2.594 33.755 2.677L23.115 8.82C22.8471 8.975 22.6247 9.19763 22.4699 9.46561C22.3151 9.73359 22.2334 10.0375 22.233 10.347V20.736C22.5771 20.632 22.9345 20.5781 23.294 20.576C23.502 20.5765 23.7097 20.5935 23.915 20.627ZM35.391 1.746C35.4835 1.64636 35.5949 1.56607 35.7186 1.50977C35.8424 1.45347 35.9761 1.42227 36.112 1.418C36.3739 1.42454 36.6228 1.53361 36.8051 1.72173C36.9874 1.90986 37.0887 2.16202 37.087 2.424C37.0877 2.53826 37.0657 2.65152 37.022 2.75713C36.9784 2.86273 36.9142 2.95857 36.833 3.039C36.7405 3.13864 36.6291 3.21893 36.5054 3.27523C36.3816 3.33153 36.2479 3.36273 36.112 3.367C35.8501 3.36046 35.6012 3.25139 35.4189 3.06327C35.2366 2.87514 35.1353 2.62298 35.137 2.361C35.1362 2.24673 35.1583 2.13346 35.2019 2.02784C35.2455 1.92223 35.3098 1.8264 35.391 1.746Z" fill="#B00000"/>
<path fill-rule="evenodd" clip-rule="evenodd" d="M49.99 22.271V10.347C49.9895 10.0375 49.9078 9.73365 49.753 9.46569C49.5982 9.19772 49.3758 8.97508 49.108 8.82L39.867 3.485C39.7057 4.02934 39.4245 4.53062 39.044 4.952L48.308 10.3V22.235C47.9479 22.3655 47.6229 22.5774 47.358 22.854C47.144 23.0706 46.9765 23.3288 46.866 23.6125C46.7554 23.8963 46.704 24.1997 46.715 24.504C46.7201 24.9791 46.8677 25.4418 47.1387 25.8321C47.4096 26.2224 47.7915 26.5224 48.2348 26.6933C48.6781 26.8643 49.1626 26.8983 49.6254 26.7909C50.0883 26.6835 50.5082 26.4397 50.831 26.091C51.045 25.8743 51.2124 25.6162 51.323 25.3324C51.4335 25.0487 51.4849 24.7453 51.474 24.441C51.4577 23.9759 51.3095 23.5249 51.0468 23.1407C50.7841 22.7565 50.4176 22.4549 49.99 22.271ZM49.815 25.118C49.7225 25.2176 49.6111 25.2979 49.4874 25.3542C49.3636 25.4105 49.2299 25.4417 49.094 25.446C48.8326 25.4379 48.5846 25.3284 48.4026 25.1406C48.2206 24.9528 48.1189 24.7015 48.119 24.44C48.1183 24.3257 48.1405 24.2123 48.1843 24.1067C48.2281 24.0011 48.2926 23.9053 48.374 23.825C48.4665 23.7253 48.5778 23.645 48.7016 23.5887C48.8254 23.5324 48.9591 23.5012 49.095 23.497C49.3564 23.5051 49.6044 23.6146 49.7864 23.8024C49.9684 23.9902 50.0701 24.2415 50.07 24.503C50.0708 24.6175 50.0487 24.731 50.0049 24.8368C49.9611 24.9426 49.8965 25.0376 49.815 25.118Z" fill="#B00000"/>
<path fill-rule="evenodd" clip-rule="evenodd" d="M36.024 28.448L26.46 22.826V11.587L36.2 6.066L45.764 11.689V22.927L36.024 28.448ZM28.186 21.838L36.037 26.455L44.037 21.921V12.676L36.184 8.059L28.184 12.593V21.839L28.186 21.838Z" fill="black"/>
<path fill-rule="evenodd" clip-rule="evenodd" d="M30.023 17.257C30.023 16.0527 30.3801 14.8755 31.0492 13.8741C31.7183 12.8728 32.6692 12.0924 33.7819 11.6315C34.8945 11.1706 36.1188 11.0501 37.2999 11.285C38.4811 11.5199 39.566 12.0999 40.4176 12.9514C41.2691 13.803 41.8491 14.8879 42.084 16.0691C42.319 17.2502 42.1984 18.4745 41.7375 19.5872C41.2766 20.6998 40.4962 21.6508 39.4949 22.3198C38.4935 22.9889 37.3163 23.346 36.112 23.346C34.5037 23.3248 32.9673 22.6764 31.8299 21.5391C30.6926 20.4018 30.0442 18.8653 30.023 17.257ZM40.444 17.257C40.444 16.4005 40.19 15.5631 39.7142 14.8509C39.2383 14.1387 38.562 13.5836 37.7706 13.2558C36.9793 12.9279 36.1085 12.8421 35.2684 13.0091C34.4283 13.1762 33.6566 13.5886 33.0509 14.1942C32.4451 14.7998 32.0326 15.5714 31.8654 16.4115C31.6981 17.2515 31.7838 18.1223 32.1114 18.9137C32.4391 19.7051 32.994 20.3816 33.7061 20.8576C34.4182 21.3336 35.2555 21.5878 36.112 21.588C37.256 21.573 38.3489 21.1119 39.1579 20.3029C39.9669 19.4939 40.428 18.401 40.443 17.257H40.444Z" fill="black"/>
<path fill-rule="evenodd" clip-rule="evenodd" d="M2.88799 48.353V51.299H2.34998V48.837H0.549984V51.298H0.0109863V48.353H2.88799Z" fill="#B00000"/>
<path fill-rule="evenodd" clip-rule="evenodd" d="M5.18998 48.353C5.3451 48.3429 5.50064 48.365 5.6468 48.418C5.79297 48.4709 5.9266 48.5535 6.0393 48.6606C6.15201 48.7676 6.24134 48.8968 6.30169 49.0401C6.36204 49.1834 6.3921 49.3376 6.38998 49.493C6.39183 49.6477 6.36145 49.801 6.30079 49.9433C6.24012 50.0856 6.15049 50.2136 6.03761 50.3194C5.92472 50.4251 5.79106 50.5062 5.64512 50.5574C5.49919 50.6087 5.34418 50.6289 5.18998 50.617H4.00198V51.299H3.45798V48.353H5.18998ZM4.00198 50.122H5.16898C5.25641 50.1318 5.34493 50.1227 5.42853 50.0953C5.51213 50.0679 5.58887 50.0228 5.65354 49.9632C5.71821 49.9035 5.76931 49.8307 5.80338 49.7495C5.83744 49.6684 5.85367 49.5809 5.85098 49.493C5.85453 49.4041 5.83901 49.3156 5.80547 49.2332C5.77194 49.1508 5.72116 49.0766 5.65655 49.0155C5.59194 48.9544 5.515 48.9079 5.4309 48.879C5.34681 48.8501 5.25749 48.8395 5.16898 48.848H4.00198V50.121V50.122Z" fill="#B00000"/>
<path fill-rule="evenodd" clip-rule="evenodd" d="M8.424 51.373C8.12262 51.3539 7.83341 51.247 7.592 51.0656C7.35058 50.8842 7.16751 50.6361 7.06532 50.3519C6.96313 50.0678 6.94629 49.7599 7.01688 49.4663C7.08746 49.1727 7.24239 48.9061 7.46257 48.6994C7.68276 48.4928 7.95859 48.355 8.25608 48.3031C8.55358 48.2512 8.85976 48.2875 9.1369 48.4075C9.41404 48.5274 9.65004 48.7258 9.81583 48.9782C9.98163 49.2306 10.07 49.526 10.07 49.828C10.07 50.0395 10.0267 50.2489 9.94263 50.443C9.8586 50.6371 9.73567 50.812 9.58142 50.9568C9.42718 51.1016 9.24489 51.2132 9.04582 51.2848C8.84675 51.3564 8.63512 51.3864 8.424 51.373ZM8.424 50.904C8.63572 50.8993 8.84135 50.8322 9.01511 50.7111C9.18887 50.59 9.32304 50.4204 9.40082 50.2234C9.47859 50.0264 9.4965 49.8109 9.45231 49.6038C9.40813 49.3966 9.3038 49.2072 9.15241 49.0591C9.00101 48.911 8.80929 48.8109 8.60124 48.7713C8.3932 48.7316 8.1781 48.7543 7.98288 48.8364C7.78766 48.9185 7.62101 49.0564 7.50381 49.2328C7.3866 49.4092 7.32405 49.6162 7.324 49.828C7.31798 49.9731 7.34249 50.1178 7.39594 50.2527C7.44939 50.3877 7.53059 50.51 7.63428 50.6116C7.73797 50.7132 7.86185 50.7919 7.99788 50.8427C8.13392 50.8934 8.27909 50.9149 8.424 50.906V50.904Z" fill="#B00000"/>
<path fill-rule="evenodd" clip-rule="evenodd" d="M13.181 49.269C13.0622 49.104 12.9037 48.9717 12.7201 48.8843C12.5366 48.7969 12.3339 48.7573 12.131 48.769C11.9876 48.7572 11.8433 48.7763 11.7079 48.825C11.5724 48.8737 11.449 48.9509 11.346 49.0514C11.243 49.1518 11.1627 49.2733 11.1106 49.4074C11.0585 49.5416 11.0358 49.6853 11.044 49.829C11.0388 49.9719 11.0637 50.1143 11.1168 50.247C11.17 50.3798 11.2503 50.4999 11.3527 50.5998C11.4551 50.6996 11.5772 50.7769 11.7113 50.8267C11.8453 50.8765 11.9883 50.8977 12.131 50.889C12.3345 50.9002 12.5375 50.8596 12.7211 50.7711C12.9047 50.6827 13.0629 50.5491 13.181 50.383L13.607 50.633C13.4496 50.8745 13.2313 51.0702 12.974 51.2003C12.7168 51.3304 12.4298 51.3903 12.142 51.374C11.9325 51.3847 11.723 51.3526 11.5263 51.2798C11.3295 51.207 11.1497 51.0949 10.9976 50.9504C10.8456 50.8058 10.7245 50.6319 10.6418 50.4391C10.559 50.2464 10.5164 50.0388 10.5164 49.829C10.5164 49.6192 10.559 49.4116 10.6418 49.2189C10.7245 49.0261 10.8456 48.8522 10.9976 48.7077C11.1497 48.5631 11.3295 48.4511 11.5263 48.3782C11.723 48.3054 11.9325 48.2733 12.142 48.284C12.4291 48.2669 12.7156 48.3264 12.9721 48.4565C13.2287 48.5865 13.446 48.7824 13.602 49.024L13.181 49.269Z" fill="#B00000"/>
<path fill-rule="evenodd" clip-rule="evenodd" d="M16.959 48.353V48.843H15.707V51.299H15.163V48.843H13.911V48.353H16.959Z" fill="#B00000"/>
<path fill-rule="evenodd" clip-rule="evenodd" d="M18.877 51.373C18.5756 51.3539 18.2864 51.247 18.045 51.0656C17.8036 50.8842 17.6205 50.6361 17.5183 50.3519C17.4161 50.0678 17.3993 49.7599 17.4699 49.4663C17.5404 49.1727 17.6954 48.9061 17.9155 48.6994C18.1357 48.4928 18.4116 48.355 18.7091 48.3031C19.0066 48.2512 19.3127 48.2875 19.5899 48.4075C19.867 48.5274 20.103 48.7258 20.2688 48.9782C20.4346 49.2306 20.5229 49.526 20.523 49.828C20.523 50.0395 20.4796 50.2489 20.3956 50.443C20.3116 50.6371 20.1886 50.812 20.0344 50.9568C19.8801 51.1016 19.6979 51.2132 19.4988 51.2848C19.2997 51.3564 19.0881 51.3864 18.877 51.373ZM18.877 50.904C19.0887 50.8993 19.2943 50.8322 19.4681 50.7111C19.6418 50.59 19.776 50.4204 19.8538 50.2234C19.9316 50.0264 19.9495 49.8109 19.9053 49.6038C19.8611 49.3966 19.7568 49.2072 19.6054 49.0591C19.454 48.911 19.2623 48.8109 19.0542 48.7713C18.8462 48.7316 18.6311 48.7543 18.4359 48.8364C18.2406 48.9185 18.074 49.0564 17.9568 49.2328C17.8396 49.4092 17.777 49.6162 17.777 49.828C17.771 49.9731 17.7955 50.1178 17.8489 50.2527C17.9024 50.3877 17.9836 50.51 18.0873 50.6116C18.1909 50.7132 18.3148 50.7919 18.4509 50.8427C18.5869 50.8934 18.7321 50.9149 18.877 50.906V50.904Z" fill="#B00000"/>
<path fill-rule="evenodd" clip-rule="evenodd" d="M25.717 48.353V50.806H26.074V51.888H25.611L25.563 51.296H23.048L23 51.888H22.537V50.806H22.921L23.421 48.35H25.721L25.717 48.353ZM23.49 50.806H25.173V48.827H23.858L23.49 50.806Z" fill="#B00000"/>
<path fill-rule="evenodd" clip-rule="evenodd" d="M29.17 48.353V48.843H27.076V49.552H28.962V50.036H27.076V50.806H29.25V51.306H26.537V48.353H29.174H29.17Z" fill="#B00000"/>
<path fill-rule="evenodd" clip-rule="evenodd" d="M32.894 48.353V51.299H32.35V48.843H31.037L30.712 50.569C30.6921 50.7803 30.59 50.9753 30.4276 51.1119C30.2652 51.2485 30.0555 51.3157 29.844 51.299H29.544V50.793H29.805C29.8938 50.8035 29.9832 50.7787 30.0539 50.7239C30.1247 50.6691 30.171 50.5887 30.183 50.5L30.583 48.353H32.89H32.894Z" fill="#B00000"/>
<path fill-rule="evenodd" clip-rule="evenodd" d="M35.664 48.353L36.916 51.299H36.346L36.146 50.836H34.137L33.937 51.299H33.352L34.637 48.353H35.66H35.664ZM34.337 50.353H35.925L35.307 48.837H34.972L34.337 50.353Z" fill="#B00000"/>
<path fill-rule="evenodd" clip-rule="evenodd" d="M40.011 48.353V48.843H37.918V49.552H39.804V50.036H37.918V50.806H40.092V51.306H37.374V48.353H40.011Z" fill="#B00000"/>
<path fill-rule="evenodd" clip-rule="evenodd" d="M41.402 48.353L42.553 50.67H42.58L43.737 48.353H44.504V51.299H43.965V49.024H43.911L42.792 51.299H42.308L41.195 49.024H41.137V51.299H40.614V48.353H41.403H41.402Z" fill="#B00000"/>
<path fill-rule="evenodd" clip-rule="evenodd" d="M49.287 49.269C49.1683 49.1042 49.0099 48.972 48.8266 48.8846C48.6432 48.7972 48.4408 48.7574 48.238 48.769C48.0946 48.7572 47.9503 48.7763 47.8148 48.825C47.6794 48.8737 47.556 48.9509 47.453 49.0514C47.35 49.1518 47.2697 49.2733 47.2176 49.4074C47.1655 49.5416 47.1428 49.6853 47.151 49.829C47.1458 49.9719 47.1706 50.1143 47.2238 50.247C47.277 50.3798 47.3573 50.4999 47.4597 50.5998C47.5621 50.6996 47.6842 50.7769 47.8182 50.8267C47.9523 50.8765 48.0953 50.8977 48.238 50.889C48.4413 50.9001 48.6442 50.8595 48.8276 50.771C49.011 50.6825 49.1691 50.5491 49.287 50.383L49.713 50.633C49.5556 50.8745 49.3372 51.0702 49.08 51.2003C48.8228 51.3304 48.5358 51.3903 48.248 51.374C48.0385 51.3847 47.829 51.3526 47.6323 51.2798C47.4355 51.207 47.2557 51.0949 47.1036 50.9504C46.9516 50.8058 46.8305 50.6319 46.7477 50.4391C46.665 50.2464 46.6223 50.0388 46.6223 49.829C46.6223 49.6192 46.665 49.4116 46.7477 49.2189C46.8305 49.0261 46.9516 48.8522 47.1036 48.7077C47.2557 48.5631 47.4355 48.4511 47.6323 48.3782C47.829 48.3054 48.0385 48.2733 48.248 48.284C48.5351 48.2669 48.8216 48.3264 49.0781 48.4565C49.3346 48.5865 49.552 48.7824 49.708 49.024L49.287 49.269Z" fill="#B00000"/>
<path fill-rule="evenodd" clip-rule="evenodd" d="M53.261 48.353V51.299H52.718V48.843H51.402L51.077 50.569C51.0572 50.7803 50.955 50.9753 50.7926 51.1119C50.6302 51.2485 50.4206 51.3157 50.209 51.299H49.909V50.793H50.17C50.2588 50.8035 50.3483 50.7787 50.419 50.7239C50.4897 50.6691 50.536 50.5887 50.548 50.5L50.948 48.353H53.255H53.261Z" fill="#B00000"/>
<path fill-rule="evenodd" clip-rule="evenodd" d="M55.408 51.373C55.1066 51.3539 54.8174 51.247 54.576 51.0656C54.3346 50.8842 54.1515 50.6361 54.0493 50.3519C53.9471 50.0678 53.9303 49.7599 54.0009 49.4663C54.0714 49.1727 54.2264 48.9061 54.4466 48.6994C54.6667 48.4928 54.9426 48.355 55.2401 48.3031C55.5376 48.2512 55.8437 48.2875 56.1209 48.4075C56.398 48.5274 56.634 48.7258 56.7998 48.9782C56.9656 49.2306 57.054 49.526 57.054 49.828C57.054 50.0395 57.0106 50.2489 56.9266 50.443C56.8426 50.6371 56.7196 50.812 56.5654 50.9568C56.4112 51.1016 56.2289 51.2132 56.0298 51.2848C55.8307 51.3564 55.6191 51.3864 55.408 51.373ZM55.408 50.904C55.6197 50.8993 55.8253 50.8322 55.9991 50.7111C56.1728 50.59 56.307 50.4204 56.3848 50.2234C56.4626 50.0264 56.4805 49.8109 56.4363 49.6038C56.3921 49.3966 56.2878 49.2072 56.1364 49.0591C55.985 48.911 55.7933 48.8109 55.5852 48.7713C55.3772 48.7316 55.1621 48.7543 54.9669 48.8364C54.7716 48.9185 54.605 49.0564 54.4878 49.2328C54.3706 49.4092 54.308 49.6162 54.308 49.828C54.302 49.9731 54.3265 50.1178 54.3799 50.2527C54.4334 50.3877 54.5146 50.51 54.6183 50.6116C54.722 50.7132 54.8458 50.7919 54.9819 50.8427C55.1179 50.8934 55.2631 50.9149 55.408 50.906V50.904Z" fill="#B00000"/>
<path fill-rule="evenodd" clip-rule="evenodd" d="M57.902 48.353L58.589 49.514H59.289V48.353H59.827V49.514H60.527L61.214 48.353H61.827L60.996 49.722L61.923 51.299H61.299L60.548 49.999H59.829V51.299H59.287V49.999H58.568L57.817 51.299H57.188L58.12 49.722L57.289 48.353H57.902Z" fill="#B00000"/>
<path fill-rule="evenodd" clip-rule="evenodd" d="M62.873 48.353V49.53H64.764V48.353H65.302V51.299H64.764V50.015H62.873V51.299H62.329V48.353H62.873Z" fill="#B00000"/>
<path fill-rule="evenodd" clip-rule="evenodd" d="M67.454 51.373C67.1526 51.3537 66.8636 51.2467 66.6223 51.0651C66.381 50.8836 66.1981 50.6355 66.096 50.3513C65.994 50.0671 65.9773 49.7593 66.048 49.4658C66.1187 49.1722 66.2737 48.9057 66.4939 48.6992C66.7141 48.4926 66.9899 48.3549 67.2874 48.3031C67.5849 48.2513 67.891 48.2876 68.1681 48.4076C68.4451 48.5276 68.6811 48.726 68.8468 48.9783C69.0126 49.2307 69.1009 49.5261 69.101 49.828C69.101 50.0396 69.0576 50.249 68.9735 50.4433C68.8894 50.6375 68.7664 50.8124 68.6121 50.9572C68.4577 51.102 68.2753 51.2136 68.0761 51.2851C67.8769 51.3566 67.6652 51.3865 67.454 51.373ZM67.454 50.904C67.6657 50.8993 67.8713 50.8322 68.0451 50.7111C68.2189 50.59 68.353 50.4204 68.4308 50.2234C68.5086 50.0264 68.5265 49.8109 68.4823 49.6038C68.4381 49.3966 68.3338 49.2072 68.1824 49.0591C68.031 48.911 67.8393 48.8109 67.6312 48.7713C67.4232 48.7316 67.2081 48.7543 67.0129 48.8364C66.8176 48.9185 66.651 49.0564 66.5338 49.2328C66.4166 49.4092 66.354 49.6162 66.354 49.828C66.348 49.9731 66.3725 50.1178 66.4259 50.2527C66.4794 50.3877 66.5606 50.51 66.6643 50.6116C66.7679 50.7132 66.8918 50.7919 67.0279 50.8426C67.1639 50.8934 67.3091 50.9149 67.454 50.906V50.904Z" fill="#B00000"/>
<path fill-rule="evenodd" clip-rule="evenodd" d="M72.244 48.353V48.843H70.15V49.552H72.037V50.036H70.151V50.806H72.325V51.306H69.607V48.353H72.244Z" fill="#B00000"/>
<path fill-rule="evenodd" clip-rule="evenodd" d="M0.0109863 45.39H1.86699V37.179H0.0109863V45.39Z" fill="black"/>
<path fill-rule="evenodd" clip-rule="evenodd" d="M10.39 42.706L5.47499 37.183H3.72299V45.394H5.54899V39.852L10.464 45.39H12.231V37.179H10.39V42.706Z" fill="black"/>
<path fill-rule="evenodd" clip-rule="evenodd" d="M27.137 36.986C26.2976 37.0416 25.4927 37.3413 24.8214 37.8483C24.1501 38.3553 23.6416 39.0475 23.3586 39.8398C23.0755 40.632 23.0302 41.4897 23.2282 42.3073C23.4263 43.1249 23.859 43.8668 24.4732 44.4418C25.0873 45.0167 25.8562 45.3995 26.6851 45.5432C27.514 45.6869 28.3668 45.5851 29.1386 45.2504C29.9105 44.9157 30.5676 44.3627 31.0293 43.6594C31.4909 42.9562 31.7369 42.1333 31.737 41.292C31.7305 40.7033 31.6048 40.122 31.3675 39.5831C31.1303 39.0443 30.7864 38.559 30.3565 38.1567C29.9267 37.7543 29.4199 37.4432 28.8665 37.242C28.3132 37.0408 27.7249 36.9537 27.137 36.986ZM27.137 44.009C26.6009 44.0031 26.0786 43.8387 25.6358 43.5366C25.1929 43.2345 24.8494 42.8081 24.6483 42.3111C24.4473 41.8142 24.3977 41.2688 24.5059 40.7438C24.6141 40.2187 24.8752 39.7374 25.2564 39.3604C25.6375 38.9835 26.1217 38.7276 26.6479 38.6252C27.1741 38.5228 27.7188 38.5783 28.2136 38.7848C28.7083 38.9913 29.1309 39.3395 29.4281 39.7857C29.7253 40.2318 29.884 40.7559 29.884 41.292C29.9006 41.6556 29.8406 42.0187 29.7079 42.3577C29.5753 42.6967 29.373 43.004 29.114 43.2599C28.8551 43.5157 28.5453 43.7143 28.2047 43.8428C27.8642 43.9714 27.5004 44.027 27.137 44.006V44.009Z" fill="black"/>
<path fill-rule="evenodd" clip-rule="evenodd" d="M51.791 40.406C51.7978 39.9669 51.7137 39.5312 51.5438 39.1262C51.3739 38.7213 51.1219 38.356 50.8038 38.0533C50.4857 37.7505 50.1083 37.517 49.6954 37.3674C49.2826 37.2178 48.8432 37.1554 48.405 37.184H43.565V45.395H45.421V43.564H48.48L49.445 45.39H51.464L50.202 43.133C50.6955 42.8727 51.1061 42.4791 51.387 41.997C51.6679 41.515 51.8079 40.9637 51.791 40.406ZM48.331 41.876H45.421V38.876H48.331C48.5403 38.8563 48.7514 38.8818 48.95 38.9507C49.1487 39.0195 49.3302 39.1302 49.4824 39.2752C49.6347 39.4202 49.754 39.5962 49.8324 39.7913C49.9108 39.9864 49.9465 40.196 49.937 40.406C49.9443 40.6127 49.9066 40.8185 49.8265 41.0091C49.7463 41.1997 49.6257 41.3707 49.4729 41.51C49.3201 41.6494 49.1388 41.7539 48.9417 41.8162C48.7445 41.8785 48.5361 41.8972 48.331 41.871V41.876Z" fill="black"/>
<path fill-rule="evenodd" clip-rule="evenodd" d="M57.862 36.986C57.0225 37.0416 56.2177 37.3413 55.5464 37.8483C54.875 38.3553 54.3666 39.0475 54.0835 39.8398C53.8005 40.632 53.7552 41.4897 53.9532 42.3073C54.1513 43.1249 54.584 43.8668 55.1981 44.4418C55.8123 45.0167 56.5811 45.3995 57.41 45.5432C58.2389 45.6869 59.0918 45.5851 59.8636 45.2504C60.6354 44.9157 61.2926 44.3627 61.7542 43.6594C62.2159 42.9562 62.4619 42.1333 62.462 41.292C62.4554 40.7033 62.3297 40.122 62.0925 39.5831C61.8552 39.0443 61.5113 38.559 61.0815 38.1567C60.6517 37.7543 60.1448 37.4432 59.5915 37.242C59.0382 37.0408 58.4499 36.9537 57.862 36.986ZM57.862 44.009C57.3259 44.0031 56.8036 43.8387 56.3607 43.5366C55.9179 43.2345 55.5743 42.8081 55.3733 42.3111C55.1722 41.8142 55.1227 41.2688 55.2309 40.7438C55.3391 40.2187 55.6002 39.7374 55.9813 39.3604C56.3625 38.9835 56.8466 38.7276 57.3728 38.6252C57.8991 38.5228 58.4438 38.5783 58.9385 38.7848C59.4333 38.9913 59.8558 39.3395 60.1531 39.7857C60.4503 40.2318 60.6089 40.7559 60.609 41.292C60.6255 41.6556 60.5656 42.0187 60.4329 42.3577C60.3003 42.6967 60.0979 43.004 59.839 43.2599C59.5801 43.5157 59.2703 43.7143 58.9297 43.8428C58.5891 43.9714 58.2254 44.027 57.862 44.006V44.009Z" fill="black"/>
<path fill-rule="evenodd" clip-rule="evenodd" d="M69.414 41.069L72.161 37.179H70.052L67.899 40.341H67.379L65.227 37.179H63.118L65.88 41.114L62.955 45.39H65.108L67.35 42.005H67.929L70.171 45.39H72.324L69.414 41.069Z" fill="black"/>
<path fill-rule="evenodd" clip-rule="evenodd" d="M15.937 40.564H14.085V45.39H15.937V42.242H20.956V40.564H15.937Z" fill="black"/>
<path fill-rule="evenodd" clip-rule="evenodd" d="M14.085 38.857H21.613V37.179H14.085V38.857Z" fill="black"/>
<path fill-rule="evenodd" clip-rule="evenodd" d="M40.661 40.772C40.8753 40.61 41.0459 40.3972 41.1575 40.1528C41.269 39.9084 41.318 39.6401 41.3 39.372C41.2934 39.0555 41.2205 38.7439 41.086 38.4573C40.9514 38.1707 40.7583 37.9155 40.5191 37.7081C40.2798 37.5008 39.9997 37.346 39.6969 37.2536C39.394 37.1613 39.0752 37.1335 38.761 37.172H33.475V38.835H38.675C38.7804 38.8212 38.8876 38.8308 38.9889 38.863C39.0902 38.8953 39.1831 38.9495 39.2611 39.0218C39.3391 39.0941 39.4002 39.1826 39.4401 39.2812C39.48 39.3797 39.4977 39.4858 39.492 39.592C39.5005 39.7786 39.4351 39.9611 39.3101 40.1C39.1851 40.2388 39.0105 40.3229 38.824 40.334H33.475V45.382H39.162C39.5082 45.3967 39.8539 45.3419 40.1786 45.2206C40.5032 45.0993 40.8002 44.9141 41.052 44.6759C41.3038 44.4378 41.5052 44.1515 41.6443 43.8341C41.7835 43.5167 41.8575 43.1745 41.862 42.828C41.8877 42.4049 41.7873 41.9837 41.5735 41.6177C41.3597 41.2518 41.0421 40.9574 40.661 40.772ZM39.102 43.712H35.331V41.96H39.147C39.2657 41.9508 39.3851 41.967 39.4971 42.0073C39.6092 42.0477 39.7114 42.1114 39.797 42.1942C39.8827 42.277 39.9498 42.377 39.9939 42.4876C40.038 42.5983 40.0581 42.717 40.053 42.836C40.0555 42.9582 40.0319 43.0796 39.984 43.192C39.936 43.3045 39.8648 43.4054 39.7748 43.4883C39.6849 43.5711 39.5784 43.6339 39.4624 43.6724C39.3464 43.711 39.2236 43.7245 39.102 43.712Z" fill="black"/>
</g>
<defs>
<clipPath id="clip0_1_42">
<rect width="72.313" height="51.875" fill="white"/>
</clipPath>
</defs>
</svg>
