<svg width="12" height="12" viewBox="0 0 12 12" fill="none" xmlns="http://www.w3.org/2000/svg"><path fill-rule="evenodd" clip-rule="evenodd" d="M11.398 2.063C11.252 1.892 10.994 1.872 10.823 2.018L5.56301 6.517L3.13001 4.696C2.95101 4.56 2.69501 4.598 2.55901 4.777C2.42401 4.958 2.46101 5.214 2.64101 5.349L5.33601 7.367C5.40601 7.419 5.49301 7.448 5.58001 7.448C5.67701 7.448 5.77201 7.413 5.84501 7.35L11.354 2.638C11.437 2.567 11.487 2.469 11.495 2.36C11.504 2.251 11.47 2.145 11.398 2.063Z" fill="#B00000"/><path fill-rule="evenodd" clip-rule="evenodd" d="M10.859 5.024L10.148 5.633L10.152 5.662C10.184 5.867 10.204 6.05 10.211 6.221C10.26 7.313 9.831 8.392 9.001 9.26C8.114 10.187 6.87 10.741 5.673 10.741C3.243 10.741 1.249 8.74 1.135 6.185C1.086 5.092 1.516 4.014 2.346 3.146C3.232 2.219 4.476 1.665 5.673 1.665C6.512 1.665 7.335 1.911 8.053 2.375L8.086 2.397L8.727 1.847L8.672 1.808C7.782 1.181 6.745 0.848999 5.673 0.848999C4.237 0.848999 2.809 1.48 1.755 2.582C0.770999 3.612 0.260999 4.904 0.318999 6.221C0.452999 9.213 2.805 11.557 5.673 11.557C7.11 11.557 8.538 10.925 9.591 9.824C10.576 8.793 11.086 7.501 11.027 6.185C11.011 5.823 10.961 5.461 10.879 5.109L10.859 5.024Z" fill="#B00000"/></svg>