<svg width="18" height="18" viewBox="0 0 18 18" fill="none" xmlns="http://www.w3.org/2000/svg"><path fill-rule="evenodd" clip-rule="evenodd" d="M10.439 6.814C8.804 7.846 7.169 8.878 5.532 9.906C5.439 9.965 5.426 10.018 5.46 10.118C5.662 10.723 5.859 11.33 6.057 11.937C6.122 12.137 6.18699 12.338 6.25299 12.54C6.28999 12.522 6.287 12.497 6.289 12.477C6.335 11.98 6.38399 11.483 6.42399 10.985C6.43499 10.861 6.47299 10.769 6.56899 10.683C7.89799 9.49 9.223 8.293 10.549 7.096C10.632 7.021 10.717 6.946 10.799 6.868C10.833 6.836 10.877 6.799 10.851 6.746C10.824 6.69 10.765 6.693 10.713 6.699C10.611 6.71 10.524 6.76 10.439 6.814Z" fill="white"/><path fill-rule="evenodd" clip-rule="evenodd" d="M8.839 17.454C4.204 17.454 0.445999 13.696 0.445999 9.061C0.445999 4.425 4.204 0.667999 8.839 0.667999C13.475 0.667999 17.233 4.425 17.233 9.061C17.233 13.696 13.475 17.454 8.839 17.454ZM11.971 5.206C11.955 5.212 11.939 5.219 11.923 5.225C9.885 6.011 7.846 6.796 5.808 7.582C4.864 7.946 3.92 8.311 2.976 8.675C2.829 8.732 2.686 8.796 2.569 8.903C2.397 9.061 2.413 9.227 2.61 9.351C2.692 9.402 2.783 9.431 2.875 9.46C3.567 9.676 4.258 9.894 4.952 10.107C5.036 10.133 5.08 10.175 5.105 10.259C5.175 10.492 5.254 10.722 5.329 10.953C5.551 11.635 5.773 12.316 5.991 12.999C6.033 13.129 6.112 13.185 6.249 13.19C6.443 13.197 6.59 13.118 6.723 12.987C7.073 12.641 7.428 12.302 7.776 11.956C7.852 11.881 7.904 11.873 7.993 11.941C8.7 12.469 9.411 12.991 10.12 13.517C10.23 13.598 10.346 13.661 10.48 13.692C10.692 13.74 10.855 13.672 10.967 13.485C11.035 13.37 11.064 13.243 11.091 13.116C11.562 10.903 12.032 8.69 12.499 6.476C12.555 6.209 12.629 5.944 12.649 5.695C12.646 5.263 12.354 5.063 11.971 5.206Z" fill="white"/></svg>