<svg width="18" height="18" viewBox="0 0 18 18" fill="none" xmlns="http://www.w3.org/2000/svg"><path fill-rule="evenodd" clip-rule="evenodd" d="M8.708 17.454C4.072 17.454 0.315002 13.696 0.315002 9.061C0.315002 4.425 4.072 0.667999 8.708 0.667999C13.343 0.667999 17.101 4.425 17.101 9.061C17.101 13.696 13.343 17.454 8.708 17.454ZM8.8 3.921C6.035 3.921 3.793 6.163 3.793 8.928C3.793 9.875 4.056 10.759 4.512 11.514L3.608 14.2L6.38 13.313C7.098 13.709 7.922 13.936 8.8 13.936C11.566 13.936 13.808 11.694 13.808 8.928C13.808 6.163 11.566 3.921 8.8 3.921Z" fill="white"/><path fill-rule="evenodd" clip-rule="evenodd" d="M8.8 13.097C7.954 13.097 7.165 12.843 6.507 12.407L4.905 12.92L5.426 11.372C4.927 10.685 4.632 9.841 4.632 8.928C4.632 6.63 6.502 4.76 8.8 4.76C11.099 4.76 12.968 6.63 12.968 8.928C12.968 11.227 11.099 13.097 8.8 13.097ZM11.387 10.225C11.357 10.17 11.273 10.135 11.148 10.066C11.023 9.997 10.406 9.665 10.29 9.618C10.175 9.571 10.09 9.546 10 9.671C9.91 9.795 9.654 10.074 9.577 10.157C9.499 10.239 9.424 10.247 9.298 10.178C9.173 10.109 8.766 9.959 8.295 9.505C7.927 9.152 7.687 8.724 7.617 8.594C7.547 8.463 7.616 8.396 7.683 8.335C7.742 8.28 7.816 8.19 7.883 8.118C7.949 8.046 7.973 7.994 8.018 7.91C8.064 7.826 8.046 7.751 8.016 7.686C7.987 7.621 7.755 6.982 7.658 6.722C7.561 6.463 7.453 6.501 7.378 6.498C7.304 6.496 7.219 6.482 7.134 6.478C7.048 6.475 6.909 6.502 6.787 6.626C6.665 6.749 6.323 7.046 6.3 7.675C6.276 8.304 6.711 8.928 6.772 9.016C6.833 9.104 7.603 10.467 8.882 11.027C10.163 11.588 10.17 11.417 10.404 11.405C10.64 11.392 11.172 11.123 11.29 10.829C11.408 10.535 11.417 10.279 11.387 10.225Z" fill="white"/></svg>