<svg width="43" height="24" viewBox="0 0 43 24" fill="none" xmlns="http://www.w3.org/2000/svg">
<path fill-rule="evenodd" clip-rule="evenodd" d="M27.7095 5.74952C26.8906 4.92572 25.9165 4.27246 24.8436 3.82755C23.7706 3.38264 22.6201 3.15491 21.4585 3.15752H21.4525C19.1236 3.18149 16.8982 4.12325 15.2596 5.7783C13.6209 7.43334 12.7013 9.66802 12.7005 11.997C12.6997 14.3261 13.6178 16.5614 15.2553 18.2175C16.8929 19.8737 19.1177 20.817 21.4465 20.8425H21.4685C23.2163 20.8405 24.9243 20.3205 26.3767 19.3483C27.829 18.376 28.9607 16.995 29.6285 15.3799C30.2964 13.7647 30.4705 11.9879 30.129 10.2738C29.7874 8.5597 28.9455 6.9853 27.7095 5.74952ZM26.8305 17.4155C26.1279 18.1209 25.2929 18.6805 24.3734 19.0621C23.4539 19.4438 22.4681 19.64 21.4725 19.6395H21.4435C20.4344 19.637 19.4358 19.4343 18.5056 19.0431C17.5754 18.6519 16.7321 18.08 16.0245 17.3605C15.3189 16.655 14.7603 15.8164 14.3811 14.8934C14.0019 13.9704 13.8097 12.9814 13.8155 11.9835C13.8282 9.963 14.6376 8.02907 16.0679 6.60191C17.4983 5.17474 19.434 4.36965 21.4545 4.36152C22.9677 4.36008 24.4471 4.80853 25.7048 5.64988C26.9625 6.49123 27.9416 7.68748 28.5178 9.08663C29.0941 10.4858 29.2413 12.0247 28.9409 13.5077C28.6404 14.9907 27.9058 16.3509 26.8305 17.4155Z" fill="#B00000"/>
<path fill-rule="evenodd" clip-rule="evenodd" d="M24.2005 11.4025C23.8255 11.3965 23.4515 11.3975 23.0785 11.4025H22.0525V10.1025C22.0525 9.51751 22.0525 8.93351 22.0525 8.34851C22.0549 8.26821 22.0412 8.18826 22.0121 8.11337C21.9831 8.03848 21.9392 7.9702 21.8833 7.91257C21.8273 7.85493 21.7604 7.80912 21.6864 7.77785C21.6124 7.74657 21.5329 7.73048 21.4525 7.73051H21.4505C21.2967 7.72953 21.1487 7.78917 21.0385 7.89651C20.9793 7.95645 20.9326 8.02751 20.901 8.1056C20.8695 8.1837 20.8536 8.26728 20.8545 8.35151C20.8472 9.56551 20.8472 10.7795 20.8545 11.9935C20.8493 12.074 20.8612 12.1546 20.8895 12.2302C20.9177 12.3057 20.9616 12.3744 21.0183 12.4317C21.0749 12.4891 21.1431 12.5338 21.2183 12.5629C21.2935 12.5919 21.374 12.6048 21.4545 12.6005C22.3745 12.6085 23.2948 12.6085 24.2155 12.6005C24.2936 12.602 24.3712 12.5877 24.4436 12.5584C24.516 12.5291 24.5817 12.4854 24.6368 12.4299C24.6918 12.3745 24.7351 12.3085 24.7639 12.2359C24.7927 12.1633 24.8065 12.0856 24.8045 12.0075C24.8071 11.9274 24.7933 11.8477 24.7639 11.7732C24.7345 11.6986 24.6901 11.6309 24.6335 11.5742C24.5769 11.5175 24.5093 11.473 24.4348 11.4435C24.3603 11.414 24.2806 11.4 24.2005 11.4025Z" fill="#B00000"/>
</svg>
