<svg width="43" height="24" viewBox="0 0 43 24" fill="none" xmlns="http://www.w3.org/2000/svg">
<path fill-rule="evenodd" clip-rule="evenodd" d="M15.4806 13.9385C15.3425 13.9342 15.2043 13.9422 15.0676 13.9625C14.9405 13.9888 14.8262 14.0577 14.7436 14.1578C14.661 14.2579 14.615 14.3832 14.6132 14.513C14.6115 14.6427 14.6541 14.7692 14.734 14.8715C14.8139 14.9738 14.9263 15.0458 15.0526 15.0755C15.1875 15.1001 15.3246 15.1101 15.4616 15.1055H21.0876C21.1664 15.1087 21.245 15.096 21.3188 15.0681C21.3926 15.0402 21.4599 14.9977 21.5168 14.9431C21.5737 14.8885 21.619 14.823 21.6499 14.7504C21.6808 14.6779 21.6968 14.5998 21.6968 14.521C21.6968 14.4421 21.6808 14.3641 21.6499 14.2915C21.619 14.219 21.5737 14.1535 21.5168 14.0989C21.4599 14.0443 21.3926 14.0017 21.3188 13.9738C21.245 13.9459 21.1664 13.9332 21.0876 13.9365H15.4806V13.9385Z" fill="#B00000"/>
<path fill-rule="evenodd" clip-rule="evenodd" d="M23.8086 13.9375C23.7298 13.9342 23.6512 13.9469 23.5774 13.9748C23.5037 14.0027 23.4363 14.0453 23.3794 14.0999C23.3225 14.1545 23.2772 14.22 23.2463 14.2925C23.2154 14.3651 23.1994 14.4431 23.1994 14.522C23.1994 14.6008 23.2154 14.6789 23.2463 14.7515C23.2772 14.824 23.3225 14.8895 23.3794 14.9441C23.4363 14.9987 23.5037 15.0412 23.5774 15.0691C23.6512 15.097 23.7298 15.1098 23.8086 15.1065H28.0976C28.3753 15.1379 28.6544 15.0609 28.8766 14.8915C28.9239 14.8408 28.9601 14.7809 28.983 14.7155C29.0059 14.6501 29.015 14.5806 29.0096 14.5115C29.0036 14.1195 28.7196 13.9375 28.1156 13.9375H23.8086Z" fill="#B00000"/>
<path fill-rule="evenodd" clip-rule="evenodd" d="M41.6136 13.3805C41.6201 12.7866 41.4501 12.2041 41.1252 11.7069C40.8003 11.2097 40.3351 10.8201 39.7886 10.5875C39.3252 10.3741 38.8482 10.1917 38.3606 10.0415C35.938 9.32725 33.43 8.94378 30.9046 8.90148C30.6419 8.89253 30.3861 8.81498 30.1626 8.6765C28.6236 7.7185 27.1186 6.75548 25.8506 5.94048C24.5276 5.05157 22.9807 4.55385 21.3876 4.50448C19.3566 4.46948 17.2606 4.46748 14.9806 4.50448C13.6268 4.53963 12.2992 4.88591 11.1006 5.51649L10.5296 5.79748L10.4576 5.83248C9.97663 6.06648 9.47763 6.30748 8.99963 6.57748C7.46728 7.41969 5.76548 7.90734 4.01963 8.00448C3.95017 8.01058 3.88108 8.02026 3.81263 8.03349C3.7273 8.05131 3.6407 8.06235 3.55363 8.06649C3.23946 8.05335 2.92601 8.10586 2.63329 8.22071C2.34058 8.33556 2.07503 8.51021 1.85363 8.73348C1.53113 9.10224 1.35909 9.57877 1.37163 10.0685V13.8005C1.36956 14.0677 1.41984 14.3326 1.51963 14.5805C1.70539 15.0283 2.00491 15.4198 2.38851 15.7162C2.7721 16.0126 3.22647 16.2037 3.70663 16.2705C3.95463 16.3225 4.19763 16.3905 4.44063 16.4615H4.46263L5.93763 16.8885L6.16063 17.3685C6.43455 17.9545 6.85684 18.4587 7.38565 18.8312C7.91446 19.2037 8.53143 19.4316 9.17543 19.4922C9.81942 19.5529 10.4681 19.4441 11.0571 19.1769C11.6462 18.9096 12.1551 18.4931 12.5336 17.9685L12.7926 17.6275H13.1586C18.5016 17.6355 24.0656 17.6365 29.7086 17.6275H30.7686C31.0276 17.9625 31.4936 18.4435 31.5136 18.4655C31.5274 18.4795 31.5437 18.4906 31.5616 18.4985C32.24 19.156 33.1479 19.5233 34.0926 19.5225C34.4538 19.5217 34.813 19.4699 35.1596 19.3685C35.9034 19.1431 36.5596 18.6939 37.0388 18.0821C37.518 17.4703 37.797 16.7256 37.8376 15.9495C37.8616 15.4558 37.7861 14.9624 37.6155 14.4986C37.4449 14.0347 37.1827 13.61 36.8446 13.2495C36.5019 12.8814 36.0886 12.586 35.6294 12.3809C35.1702 12.1757 34.6745 12.0651 34.1716 12.0555C33.665 12.0386 33.1606 12.1285 32.6909 12.3192C32.2213 12.5099 31.797 12.7972 31.4456 13.1625C30.9355 13.6889 30.591 14.3533 30.4546 15.0735C30.3969 15.5251 30.3845 15.9814 30.4176 16.4355H13.2106V16.4295C13.3661 15.4404 13.1293 14.4296 12.5506 13.6125C12.0126 12.8597 11.2139 12.3338 10.3098 12.1372C9.40565 11.9405 8.46068 12.0871 7.65863 12.5485C7.11164 12.8636 6.65162 13.3099 6.31995 13.847C5.98828 14.3841 5.79539 14.9953 5.75863 15.6255V15.6315L5.02963 15.4225C4.51563 15.2775 4.01763 15.1365 3.52063 14.9905C3.27301 14.9371 3.04827 14.8076 2.87777 14.6203C2.70728 14.4329 2.59955 14.197 2.56963 13.9455C2.54045 13.5626 2.53211 13.1783 2.54463 12.7945C2.54481 12.7772 2.54211 12.7599 2.53663 12.7435V10.4885C2.5371 10.4822 2.5371 10.4758 2.53663 10.4695C2.53663 10.3275 2.53663 10.1865 2.53663 10.0435C2.54036 9.86271 2.60669 9.68884 2.72432 9.55152C2.84194 9.41419 3.00357 9.32194 3.18163 9.29049C3.41363 9.25049 3.64963 9.22349 3.88163 9.19649L4.42163 9.13248C5.57226 9.04437 6.70596 8.8029 7.79263 8.41448C7.90863 8.36648 8.02963 8.30448 8.15163 8.24148C8.40301 8.06971 8.70228 7.98186 9.00663 7.99049C9.3109 8.11772 9.56858 8.3356 9.74463 8.61448C9.81963 8.70648 9.89363 8.79648 9.97063 8.87948C10.4506 9.3513 11.0346 9.70387 11.6757 9.90882C12.3167 10.1138 12.997 10.1654 13.6616 10.0595H16.5846H16.6346H16.9496C17.6736 10.0535 18.3956 10.0595 19.1206 10.0595H20.4206C23.0946 10.0595 25.8616 10.0485 28.5796 10.0765C30.3796 10.0955 32.2556 10.1905 34.1476 10.3595C35.8868 10.5005 37.5917 10.9216 39.1966 11.6065C39.3439 11.6757 39.4859 11.7556 39.6216 11.8455C39.6736 11.8775 39.7216 11.9105 39.7776 11.9405L39.8776 11.9995C39.8776 11.9995 39.9076 12.0235 39.9496 12.0605H39.1496C39.0733 12.0571 38.997 12.069 38.9253 12.0955C38.8536 12.122 38.788 12.1624 38.7321 12.2146C38.6762 12.2667 38.6313 12.3295 38.6 12.3992C38.5687 12.4689 38.5515 12.5441 38.5496 12.6205C38.5487 12.7095 38.5676 12.7975 38.605 12.8782C38.6423 12.959 38.6971 13.0304 38.7655 13.0874C38.8338 13.1443 38.914 13.1853 39.0001 13.2075C39.0863 13.2297 39.1763 13.2324 39.2636 13.2155C39.4886 13.2215 39.7116 13.2155 39.9466 13.2155H40.4356V15.4375C40.4384 15.5513 40.4307 15.6651 40.4126 15.7775C40.4025 15.9504 40.3315 16.1142 40.2122 16.2398C40.0928 16.3654 39.9328 16.4446 39.7606 16.4635C39.6649 16.4732 39.5721 16.5019 39.4876 16.548C39.4032 16.594 39.3287 16.6564 39.2686 16.7315C39.228 16.7909 39.1999 16.858 39.1861 16.9287C39.1724 16.9994 39.1732 17.0722 39.1886 17.1425C39.2073 17.2253 39.2426 17.3034 39.2924 17.3721C39.3423 17.4407 39.4055 17.4986 39.4784 17.5421C39.5512 17.5856 39.6322 17.6138 39.7163 17.625C39.8004 17.6363 39.8859 17.6303 39.9676 17.6075C40.434 17.5448 40.8601 17.3097 41.1619 16.9487C41.4638 16.5876 41.6195 16.1266 41.5986 15.6565C41.6356 14.8135 41.6366 14.0675 41.6136 13.3805ZM28.1386 8.85249H19.5806V5.67149C21.2719 5.46485 22.9865 5.76192 24.5096 6.52549C25.8156 7.27049 27.0696 8.11448 28.1236 8.84348L28.1386 8.85249ZM12.2266 8.82949L12.1396 8.81048C11.7253 8.70272 11.3497 8.4806 11.0556 8.16949L10.2456 7.25248L12.0306 6.35949C12.4526 6.14079 12.9024 5.98063 13.3676 5.88348C13.5199 5.84384 13.6756 5.8184 13.8326 5.80749H13.8566L13.9566 5.79848C14.9886 5.72648 16.0636 5.70348 17.0136 5.68348C17.3996 5.67548 17.7856 5.66648 18.1756 5.65548L18.3546 5.64648V8.89448H17.5416C17.3146 8.89448 17.0776 8.89448 16.8416 8.89448H13.3236C13.1926 8.89448 13.0616 8.89448 12.9326 8.89448C12.8326 8.89448 12.7266 8.88248 12.5806 8.86948H12.5056C12.4117 8.86336 12.3184 8.85 12.2266 8.82949ZM6.94863 15.7715C6.94978 15.4338 7.0182 15.0997 7.14989 14.7888C7.28158 14.4779 7.4739 14.1963 7.71563 13.9605C8.20239 13.4834 8.85805 13.2181 9.53963 13.2225H9.54863C9.88375 13.224 10.2153 13.2919 10.524 13.4222C10.8328 13.5525 11.1127 13.7427 11.3476 13.9817C11.5825 14.2207 11.7678 14.5038 11.8927 14.8148C12.0177 15.1258 12.0798 15.4584 12.0756 15.7935C12.0714 16.4713 11.8002 17.1202 11.3208 17.5994C10.8414 18.0786 10.1925 18.3496 9.51463 18.3535C8.83351 18.3464 8.18254 18.0716 7.70239 17.5885C7.22224 17.1053 6.95148 16.4526 6.94863 15.7715ZM34.0956 13.2225V13.0475L34.1056 13.2225C34.7839 13.2238 35.4339 13.4944 35.9127 13.9747C36.3916 14.455 36.6603 15.1057 36.6596 15.784C36.6589 16.4622 36.389 17.1125 35.9092 17.5918C35.4294 18.0712 34.7789 18.3405 34.1006 18.3405C33.4224 18.3405 32.7718 18.0712 32.292 17.5918C31.8122 17.1125 31.5423 16.4622 31.5416 15.784C31.5409 15.1057 31.8096 14.455 32.2885 13.9747C32.7674 13.4944 33.4174 13.2238 34.0956 13.2225Z" fill="#B00000"/>
</svg>
