<svg width="316" height="210" viewBox="0 0 316 210" fill="none" xmlns="http://www.w3.org/2000/svg">
<g clip-path="url(#clip0_5_192)">
<path fill-rule="evenodd" clip-rule="evenodd" d="M95.294 183.248L140.114 157.34V209.134L95.294 183.248ZM139.615 158.204L96.289 183.249L139.615 208.27V158.204Z" fill="url(#paint0_linear_5_192)"/>
<path fill-rule="evenodd" clip-rule="evenodd" d="M271.31 34.268V85.463L226.989 59.866L183.187 85.162V136.382L138.33 110.489L138.351 110.476L95.042 85.464V136.381L50.762 110.809L7.253 135.938L51.305 161.402L6.483 187.289V136.264L0 140.008V139.539L6.261 135.941L0 132.434V131.774L5.36 134.869L6.483 135.492V86.274L0 90.022V88.643L6.141 85.096L0 81.55V80.975L6.276 84.6V34.533L0 38.162V37.487L5.813 34.13L0 30.853V30.068L5.153 33.044L6.276 33.667V0.110001H6.859V33.644L50.246 8.671L34.926 0.110001H36.275L50.433 8.286V0.110001H50.968V8.239L65.031 0.110001H66.042L51.238 8.659L94.542 33.692V0.110001H95.042V33.692L138.345 8.66L123.541 0.110001H124.555L137.469 7.575L138.592 8.215V0.110001H139.115V8.224L153.151 0.110001H154.167L139.363 8.66L181.541 33.042L182.665 33.668V0.110001H183.172L183.187 33.678L226.479 8.666L211.664 0.110001H212.692L226.738 8.226V0.110001H227.261V8.224L241.297 0.110001H242.314L227.487 8.673L270.81 33.693V0.110001H271.31V33.692L314.635 8.672L299.811 0.110001H300.822L314.884 8.239V0.110001H315.383V8.815L271.31 34.268ZM49.139 111.17L50.217 110.499L50.213 110.497L50.259 110.47L7.065 85.523V135.47L49.139 111.17ZM50.306 161.403L7.065 136.407V137.156L6.983 186.423L50.306 161.403ZM6.776 84.599L50.1 59.578L6.859 34.604V35.332L6.776 84.599ZM50.35 9.201L7.151 34.173L50.35 59.145V9.201ZM50.852 60.011L50.66 59.9L50.469 60.011V59.942L7.118 84.978L50.762 110.183L94.284 85.025L51.973 60.59L50.852 60.011ZM50.968 9.103V59.146L94.274 34.112L50.968 9.103ZM94.542 34.557L51.217 59.578L94.542 84.6V34.557ZM94.542 85.451L52.383 109.822L51.248 110.515L94.542 135.518V85.451ZM95.042 84.599L138.346 59.565L95.042 34.556V84.599ZM138.592 9.118L95.29 34.125L138.592 59.133V9.118ZM138.592 60L95.29 85.031L138.615 110.052L138.592 60ZM139.114 110.051L182.428 85.025L139.115 60.024L139.114 110.051ZM139.115 9.117V59.132L182.406 34.12L139.115 9.117ZM182.665 34.557L139.341 59.578L182.665 84.586V34.557ZM182.688 85.452L139.341 110.496L182.688 135.518V85.452ZM183.187 84.586L226.488 59.578L183.187 34.57V84.586ZM226.761 10.39L226.738 9.104L183.435 34.113L226.761 59.146V10.39ZM227.261 9.117V59.132L270.542 34.112L227.261 9.117ZM270.81 34.533L227.486 59.579L270.81 84.6V34.533Z" fill="url(#paint1_linear_5_192)"/>
<path fill-rule="evenodd" clip-rule="evenodd" d="M227.49 159.426L272.31 133.518V185.312L227.49 159.426ZM271.81 134.382L228.485 159.427L271.81 184.448V134.382Z" fill="url(#paint2_linear_5_192)"/>
</g>
<defs>
<linearGradient id="paint0_linear_5_192" x1="95.294" y1="5336.74" x2="95.294" y2="157.34" gradientUnits="userSpaceOnUse">
<stop stop-color="white"/>
<stop offset="0.53" stop-color="#E6E5E5"/>
<stop offset="1" stop-color="#CCCBCB"/>
</linearGradient>
<linearGradient id="paint1_linear_5_192" x1="0" y1="18718" x2="0" y2="0.110001" gradientUnits="userSpaceOnUse">
<stop stop-color="white"/>
<stop offset="0.53" stop-color="#E6E5E5"/>
<stop offset="1" stop-color="#CCCBCB"/>
</linearGradient>
<linearGradient id="paint2_linear_5_192" x1="227.49" y1="5312.92" x2="227.49" y2="133.518" gradientUnits="userSpaceOnUse">
<stop stop-color="white"/>
<stop offset="0.53" stop-color="#E6E5E5"/>
<stop offset="1" stop-color="#CCCBCB"/>
</linearGradient>
<clipPath id="clip0_5_192">
<rect width="316" height="210" fill="white"/>
</clipPath>
</defs>
</svg>
