<svg width="210" height="316" viewBox="0 0 210 316" fill="none" xmlns="http://www.w3.org/2000/svg">
<g clip-path="url(#clip0_5_233)">
<mask id="mask0_5_233" style="mask-type:luminance" maskUnits="userSpaceOnUse" x="0" y="0" width="210" height="316">
<path d="M210 0L210 316L-1.52588e-05 316L-1.44599e-06 -9.17939e-06L210 0Z" fill="white"/>
</mask>
<g mask="url(#mask0_5_233)">
<path fill-rule="evenodd" clip-rule="evenodd" d="M26.752 220.706L52.66 175.886L0.865992 175.886L26.752 220.706ZM51.796 176.385L26.751 219.711L1.72999 176.385L51.796 176.385Z" fill="url(#paint0_linear_5_233)"/>
<path fill-rule="evenodd" clip-rule="evenodd" d="M175.732 44.69L124.537 44.69L150.134 89.011L124.838 132.813L73.618 132.813L99.511 177.67L99.524 177.649L124.536 220.958L73.619 220.958L99.191 265.238L74.062 308.747L48.598 264.695L22.711 309.517L73.736 309.517L69.992 316L70.461 316L74.059 309.739L77.566 316L78.226 316L75.131 310.64L74.508 309.517L123.726 309.517L119.978 316L121.357 316L124.904 309.859L128.45 316L129.025 316L125.4 309.724L175.467 309.724L171.838 316L172.513 316L175.87 310.187L179.147 316L179.932 316L176.956 310.847L176.333 309.724L209.89 309.724L209.89 309.141L176.356 309.141L201.329 265.754L209.89 281.074L209.89 279.725L201.714 265.567L209.89 265.567L209.89 265.032L201.761 265.032L209.89 250.969L209.89 249.958L201.341 264.762L176.308 221.458L209.89 221.458L209.89 220.958L176.308 220.958L201.34 177.655L209.89 192.459L209.89 191.445L202.425 178.531L201.785 177.408L209.89 177.408L209.89 176.885L201.776 176.885L209.89 162.849L209.89 161.833L201.34 176.637L176.958 134.459L176.332 133.335L209.89 133.335L209.89 132.828L176.322 132.813L201.334 89.521L209.89 104.336L209.89 103.308L201.774 89.262L209.89 89.262L209.89 88.739L201.776 88.739L209.89 74.703L209.89 73.686L201.327 88.513L176.307 45.19L209.89 45.19L209.89 44.69L176.308 44.69L201.328 1.36499L209.89 16.189L209.89 15.178L201.761 1.116L209.89 1.116L209.89 0.617004L201.185 0.617004L175.732 44.69ZM98.83 266.861L99.501 265.783L99.503 265.787L99.53 265.741L124.477 308.935L74.53 308.935L98.83 266.861ZM48.597 265.694L73.593 308.935L72.844 308.935L23.577 309.017L48.597 265.694ZM125.401 309.224L150.422 265.9L175.396 309.141L174.668 309.141L125.401 309.224ZM200.799 265.65L175.827 308.849L150.855 265.65L200.799 265.65ZM149.989 265.148L150.1 265.34L149.989 265.531L150.058 265.531L125.022 308.882L99.817 265.238L124.975 221.716L149.41 264.027L149.989 265.148ZM200.897 265.032L150.854 265.032L175.888 221.726L200.897 265.032ZM175.443 221.458L150.422 264.783L125.4 221.458L175.443 221.458ZM124.549 221.458L100.178 263.617L99.485 264.752L74.482 221.458L124.549 221.458ZM125.401 220.958L150.435 177.654L175.444 220.958L125.401 220.958ZM200.882 177.408L175.875 220.71L150.867 177.408L200.882 177.408ZM150 177.408L124.969 220.71L99.948 177.385L150 177.408ZM99.949 176.886L124.975 133.572L149.976 176.885L99.949 176.886ZM200.883 176.885L150.868 176.885L175.88 133.594L200.883 176.885ZM175.443 133.335L150.422 176.659L125.414 133.335L175.443 133.335ZM124.548 133.312L99.504 176.659L74.482 133.312L124.548 133.312ZM125.414 132.813L150.422 89.512L175.43 132.813L125.414 132.813ZM199.61 89.239L200.896 89.262L175.887 132.565L150.854 89.239L199.61 89.239ZM200.883 88.739L150.868 88.739L175.888 45.458L200.883 88.739ZM175.467 45.19L150.421 88.514L125.4 45.19L175.467 45.19Z" fill="url(#paint1_linear_5_233)"/>
<path fill-rule="evenodd" clip-rule="evenodd" d="M50.574 88.51L76.482 43.69L24.688 43.69L50.574 88.51ZM75.618 44.19L50.573 87.515L25.552 44.19L75.618 44.19Z" fill="url(#paint2_linear_5_233)"/>
</g>
</g>
<defs>
<linearGradient id="paint0_linear_5_233" x1="-5126.74" y1="220.706" x2="52.66" y2="220.706" gradientUnits="userSpaceOnUse">
<stop stop-color="white"/>
<stop offset="0.53" stop-color="#E6E5E5"/>
<stop offset="1" stop-color="#CCCBCB"/>
</linearGradient>
<linearGradient id="paint1_linear_5_233" x1="-18508" y1="315.999" x2="209.89" y2="316" gradientUnits="userSpaceOnUse">
<stop stop-color="white"/>
<stop offset="0.53" stop-color="#E6E5E5"/>
<stop offset="1" stop-color="#CCCBCB"/>
</linearGradient>
<linearGradient id="paint2_linear_5_233" x1="-5102.92" y1="88.5098" x2="76.482" y2="88.51" gradientUnits="userSpaceOnUse">
<stop stop-color="white"/>
<stop offset="0.53" stop-color="#E6E5E5"/>
<stop offset="1" stop-color="#CCCBCB"/>
</linearGradient>
<clipPath id="clip0_5_233">
<rect width="316" height="210" fill="white" transform="matrix(4.37114e-08 -1 -1 -4.37114e-08 210 316)"/>
</clipPath>
</defs>
</svg>
